3D InterOp IGES (v. 2021 1.0.0), Spatial Corp. Copyright (c) 1999-2020. S      1
1H,,1H;,6HNoname,7Hhhh.igs,13HSpatial Corp.,20H3D InterOp ACIS/IGES,32, G      1
38, 6,308,15,6HNoname,1.000,2,2HMM,1,1.000,15H20251222.182956,1.0e-06,  G      2
0.00,6HNoname,6HNoname,11,0,15H20251222.182956;                         G      3
     110       1       0       0       0       0       0       000010001D      1
     110       0       0       1       0       0       0               0D      2
     124       2       0       0       0       0       0       000010001D      3
     124       0       0       1       0       0       0               0D      4
     100       3       0       0       0       0       3       000010001D      5
     100       0       0       1       0       0       0               0D      6
     120       4       0       0       0       0       0       000010001D      7
     120       0       0       1       0       0       0               0D      8
     124       5       0       0       0       0       0       000010001D      9
     124       0       0       1       0       0       0               0D     10
     100       6       0       0       0       0       9       000010001D     11
     100       0       0       1       0       0       0               0D     12
     502       7       0       0       0       0       0       000010001D     13
     502       0       0       1       1       0       0               0D     14
     124       8       0       0       0       0       0       000010001D     15
     124       0       0       1       0       0       0               0D     16
     100       9       0       0       0       0      15       000010001D     17
     100       0       0       1       0       0       0               0D     18
     504      10       0       0       0       0       0       000010001D     19
     504       0       0       1       1       0       0               0D     20
     508      11       0       0       0       0       0       000010001D     21
     508       0       0       1       1       0       0               0D     22
     510      12       0       0       0       0       0       000010001D     23
     510       0       0       1       1       0       0               0D     24
     110      13       0       0       0       0       0       000010001D     25
     110       0       0       1       0       0       0               0D     26
     124      14       0       0       0       0       0       000010001D     27
     124       0       0       1       0       0       0               0D     28
     100      15       0       0       0       0      27       000010001D     29
     100       0       0       1       0       0       0               0D     30
     120      16       0       0       0       0       0       000010001D     31
     120       0       0       1       0       0       0               0D     32
     508      17       0       0       0       0       0       000010001D     33
     508       0       0       1       1       0       0               0D     34
     510      18       0       0       0       0       0       000010001D     35
     510       0       0       1       1       0       0               0D     36
     514      19       0       0       0       0       0       000010001D     37
     514       0       0       1       1       0       0               0D     38
     186      20       0       0       0       0       0       000000001D     39
     186       0       0       1       0       0       0               0D     40
     116      21       0       0       0       0       0       000010001D     41
     116       0       0       1       0       0       0               0D     42
     123      22       0       0       0       0       0       000010201D     43
     123       0       0       1       0       0       0               0D     44
     123      23       0       0       0       0       0       000010201D     45
     123       0       0       1       0       0       0               0D     46
     194      24       0       0       0       0       0       000010001D     47
     194       0       0       1       1       0       0               0D     48
     124      25       0       0       0       0       0       000010001D     49
     124       0       0       1       0       0       0               0D     50
     100      26       0       0       0       0      49       000010001D     51
     100       0       0       1       0       0       0               0D     52
     502      27       0       0       0       0       0       000010001D     53
     502       0       0       2       1       0       0               0D     54
     110      29       0       0       0       0       0       000010001D     55
     110       0       0       2       0       0       0               0D     56
     124      31       0       0       0       0       0       000010001D     57
     124       0       0       1       0       0       0               0D     58
     100      32       0       0       0       0      57       000010001D     59
     100       0       0       1       0       0       0               0D     60
     124      33       0       0       0       0       0       000010001D     61
     124       0       0       1       0       0       0               0D     62
     100      34       0       0       0       0      61       000010001D     63
     100       0       0       1       0       0       0               0D     64
     110      35       0       0       0       0       0       000010001D     65
     110       0       0       2       0       0       0               0D     66
     124      37       0       0       0       0       0       000010001D     67
     124       0       0       1       0       0       0               0D     68
     100      38       0       0       0       0      67       000010001D     69
     100       0       0       1       0       0       0               0D     70
     504      39       0       0       0       0       0       000010001D     71
     504       0       0       2       1       0       0               0D     72
     508      41       0       0       0       0       0       000010001D     73
     508       0       0       1       1       0       0               0D     74
     510      42       0       0       0       0       0       000010001D     75
     510       0       0       1       1       0       0               0D     76
     116      43       0       0       0       0       0       000010001D     77
     116       0       0       1       0       0       0               0D     78
     123      44       0       0       0       0       0       000010201D     79
     123       0       0       1       0       0       0               0D     80
     123      45       0       0       0       0       0       000010201D     81
     123       0       0       1       0       0       0               0D     82
     190      46       0       0       0       0       0       000010001D     83
     190       0       0       1       1       0       0               0D     84
     508      47       0       0       0       0       0       000010001D     85
     508       0       0       1       1       0       0               0D     86
     510      48       0       0       0       0       0       000010001D     87
     510       0       0       1       1       0       0               0D     88
     116      49       0       0       0       0       0       000010001D     89
     116       0       0       1       0       0       0               0D     90
     123      50       0       0       0       0       0       000010201D     91
     123       0       0       1       0       0       0               0D     92
     123      51       0       0       0       0       0       000010201D     93
     123       0       0       1       0       0       0               0D     94
     194      52       0       0       0       0       0       000010001D     95
     194       0       0       1       1       0       0               0D     96
     508      53       0       0       0       0       0       000010001D     97
     508       0       0       1       1       0       0               0D     98
     510      54       0       0       0       0       0       000010001D     99
     510       0       0       1       1       0       0               0D    100
     116      55       0       0       0       0       0       000010001D    101
     116       0       0       1       0       0       0               0D    102
     123      56       0       0       0       0       0       000010201D    103
     123       0       0       1       0       0       0               0D    104
     123      57       0       0       0       0       0       000010201D    105
     123       0       0       1       0       0       0               0D    106
     190      58       0       0       0       0       0       000010001D    107
     190       0       0       1       1       0       0               0D    108
     508      59       0       0       0       0       0       000010001D    109
     508       0       0       1       1       0       0               0D    110
     510      60       0       0       0       0       0       000010001D    111
     510       0       0       1       1       0       0               0D    112
     514      61       0       0       0       0       0       000010001D    113
     514       0       0       1       1       0       0               0D    114
     186      62       0       0       0       0       0       000000001D    115
     186       0       0       1       0       0       0               0D    116
     116      63       0       0       0       0       0       000010001D    117
     116       0       0       1       0       0       0               0D    118
     123      64       0       0       0       0       0       000010201D    119
     123       0       0       1       0       0       0               0D    120
     123      65       0       0       0       0       0       000010201D    121
     123       0       0       1       0       0       0               0D    122
     190      66       0       0       0       0       0       000010001D    123
     190       0       0       1       1       0       0               0D    124
     110      67       0       0       0       0       0       000010001D    125
     110       0       0       2       0       0       0               0D    126
     502      69       0       0       0       0       0       000010001D    127
     502       0       0       3       1       0       0               0D    128
     110      72       0       0       0       0       0       000010001D    129
     110       0       0       1       0       0       0               0D    130
     110      73       0       0       0       0       0       000010001D    131
     110       0       0       2       0       0       0               0D    132
     110      75       0       0       0       0       0       000010001D    133
     110       0       0       1       0       0       0               0D    134
     110      76       0       0       0       0       0       000010001D    135
     110       0       0       1       0       0       0               0D    136
     110      77       0       0       0       0       0       000010001D    137
     110       0       0       1       0       0       0               0D    138
     110      78       0       0       0       0       0       000010001D    139
     110       0       0       2       0       0       0               0D    140
     110      80       0       0       0       0       0       000010001D    141
     110       0       0       1       0       0       0               0D    142
     110      81       0       0       0       0       0       000010001D    143
     110       0       0       1       0       0       0               0D    144
     110      82       0       0       0       0       0       000010001D    145
     110       0       0       1       0       0       0               0D    146
     110      83       0       0       0       0       0       000010001D    147
     110       0       0       1       0       0       0               0D    148
     110      84       0       0       0       0       0       000010001D    149
     110       0       0       2       0       0       0               0D    150
     504      86       0       0       0       0       0       000010001D    151
     504       0       0       4       1       0       0               0D    152
     508      90       0       0       0       0       0       000010001D    153
     508       0       0       1       1       0       0               0D    154
     510      91       0       0       0       0       0       000010001D    155
     510       0       0       1       1       0       0               0D    156
     116      92       0       0       0       0       0       000010001D    157
     116       0       0       1       0       0       0               0D    158
     123      93       0       0       0       0       0       000010201D    159
     123       0       0       1       0       0       0               0D    160
     123      94       0       0       0       0       0       000010201D    161
     123       0       0       1       0       0       0               0D    162
     190      95       0       0       0       0       0       000010001D    163
     190       0       0       1       1       0       0               0D    164
     508      96       0       0       0       0       0       000010001D    165
     508       0       0       1       1       0       0               0D    166
     510      97       0       0       0       0       0       000010001D    167
     510       0       0       1       1       0       0               0D    168
     116      98       0       0       0       0       0       000010001D    169
     116       0       0       1       0       0       0               0D    170
     123      99       0       0       0       0       0       000010201D    171
     123       0       0       1       0       0       0               0D    172
     123     100       0       0       0       0       0       000010201D    173
     123       0       0       1       0       0       0               0D    174
     190     101       0       0       0       0       0       000010001D    175
     190       0       0       1       1       0       0               0D    176
     508     102       0       0       0       0       0       000010001D    177
     508       0       0       1       1       0       0               0D    178
     510     103       0       0       0       0       0       000010001D    179
     510       0       0       1       1       0       0               0D    180
     116     104       0       0       0       0       0       000010001D    181
     116       0       0       1       0       0       0               0D    182
     123     105       0       0       0       0       0       000010201D    183
     123       0       0       1       0       0       0               0D    184
     123     106       0       0       0       0       0       000010201D    185
     123       0       0       1       0       0       0               0D    186
     190     107       0       0       0       0       0       000010001D    187
     190       0       0       1       1       0       0               0D    188
     508     108       0       0       0       0       0       000010001D    189
     508       0       0       1       1       0       0               0D    190
     510     109       0       0       0       0       0       000010001D    191
     510       0       0       1       1       0       0               0D    192
     116     110       0       0       0       0       0       000010001D    193
     116       0       0       1       0       0       0               0D    194
     123     111       0       0       0       0       0       000010201D    195
     123       0       0       1       0       0       0               0D    196
     123     112       0       0       0       0       0       000010201D    197
     123       0       0       1       0       0       0               0D    198
     190     113       0       0       0       0       0       000010001D    199
     190       0       0       1       1       0       0               0D    200
     508     114       0       0       0       0       0       000010001D    201
     508       0       0       1       1       0       0               0D    202
     510     115       0       0       0       0       0       000010001D    203
     510       0       0       1       1       0       0               0D    204
     116     116       0       0       0       0       0       000010001D    205
     116       0       0       1       0       0       0               0D    206
     123     117       0       0       0       0       0       000010201D    207
     123       0       0       1       0       0       0               0D    208
     123     118       0       0       0       0       0       000010201D    209
     123       0       0       1       0       0       0               0D    210
     190     119       0       0       0       0       0       000010001D    211
     190       0       0       1       1       0       0               0D    212
     508     120       0       0       0       0       0       000010001D    213
     508       0       0       1       1       0       0               0D    214
     510     121       0       0       0       0       0       000010001D    215
     510       0       0       1       1       0       0               0D    216
     514     122       0       0       0       0       0       000010001D    217
     514       0       0       1       1       0       0               0D    218
     186     123       0       0       0       0       0       000000001D    219
     186       0       0       1       0       0       0               0D    220
110,0.,0.,0.,0.,0.,1000.;                                              1P      1
124,0.,1.,0.,0.,0.,0.,1.,0.,1.,0.,0.,0.;                               3P      2
100,0.,0.,0.,1000.,0.,-1000.,0.00000000000012;                         5P      3
120,1,5,0.,6.28318530717959;                                           7P      4
124,0.,-1.,-0.,0.,0.,0.,-1.,0.,1.,0.,0.,0.;                            9P      5
100,0.,0.,0.,1000.,0.,-1000.,0.00000000000012;                        11P      6
502,2,0.00000000000012,0.,-1000.,0.,0.,1000.;                         13P      7
124,0.,-1.,-0.,0.,0.,0.,-1.,0.,1.,0.,0.,0.;                           15P      8
100,0.,0.,0.,-1000.,-0.00000000000012,1000.,0.;                       17P      9
504,2,11,13,2,13,1,17,13,1,13,2;                                      19P     10
508,2,0,19,2,0,0,0,19,1,0,0;                                          21P     11
510,7,1,1,21;                                                         23P     12
110,0.,0.,0.,0.,0.,1000.;                                             25P     13
124,0.,1.,0.,0.,0.,0.,1.,0.,1.,0.,0.,0.;                              27P     14
100,0.,0.,0.,1000.,0.,-1000.,0.00000000000012;                        29P     15
120,25,29,0.,6.28318530717959;                                        31P     16
508,2,0,19,2,1,0,0,19,1,1,0;                                          33P     17
510,31,1,1,33;                                                        35P     18
514,2,23,1,35,1;                                                      37P     19
186,37,1,0;                                                           39P     20
116,0.,0.,5000.;                                                      41P     21
123,0.,0.,-1.;                                                        43P     22
123,0.,1.,0.;                                                         45P     23
194,41,43,500.,9.46232220802561,45;                                   47P     24
124,0.,-1.,0.,0.,1.,0.,0.,0.,0.,0.,1.,2000.;                          49P     25
100,0.,0.,0.,1000.,0.,-1000.,0.00000000000012;                        51P     26
502,4,-0.00000000000006,-500.,5000.,-0.00000000000012,-1000.,         53P     27
2000.,0.,1000.,2000.,0.,500.,5000.;                                   53P     28
110,-0.00000000000006,-500.,5000.,-0.00000000000012,                  55P     29
-999.99999999999977,2000.;                                            55P     30
124,0.,1.,0.,0.,1.,0.,0.,0.,0.,0.,-1.,5000.;                          57P     31
100,0.,0.,0.,-500.,0.00000000000006,500.,-0.00000000000012;           59P     32
124,0.,1.,0.,0.,1.,0.,0.,0.,0.,0.,-1.,5000.;                          61P     33
100,0.,0.,0.,500.,0.,-500.,0.00000000000006;                          63P     34
110,0.00000000000012,999.99999999999977,2000.,0.00000000000006,       65P     35
500.,5000.;                                                           65P     36
124,0.,-1.,0.,0.,1.,0.,0.,0.,0.,0.,1.,2000.;                          67P     37
100,0.,0.,0.,-1000.,0.00000000000012,1000.,-0.00000000000024;         69P     38
504,6,51,53,3,53,2,55,53,1,53,2,59,53,1,53,4,63,53,4,53,1,65,53,      71P     39
3,53,4,69,53,2,53,3;                                                  71P     40
508,4,0,71,5,0,0,0,71,1,1,0,0,71,2,0,0,0,71,3,1,0;                    73P     41
510,47,1,1,73;                                                        75P     42
116,0.,0.,2000.;                                                      77P     43
123,0.,0.,-1.;                                                        79P     44
123,-1.,0.,0.;                                                        81P     45
190,77,79,81;                                                         83P     46
508,2,0,71,1,0,0,0,71,6,0,0;                                          85P     47
510,83,1,1,85;                                                        87P     48
116,0.,0.,5000.;                                                      89P     49
123,0.,0.,-1.;                                                        91P     50
123,0.,1.,0.;                                                         93P     51
194,89,91,500.,9.46232220802561,93;                                   95P     52
508,4,0,71,5,1,0,0,71,4,1,0,0,71,2,1,0,0,71,6,1,0;                    97P     53
510,95,1,1,97;                                                        99P     54
116,0.,0.,5000.;                                                     101P     55
123,0.,0.,1.;                                                        103P     56
123,1.,0.,0.;                                                        105P     57
190,101,103,105;                                                     107P     58
508,2,0,71,4,0,0,0,71,3,0,0;                                         109P     59
510,107,1,1,109;                                                     111P     60
514,4,75,1,87,1,99,1,111,1;                                          113P     61
186,113,1,0;                                                         115P     62
116,2500.,500.,5000.;                                                117P     63
123,-0.99503719020999,0.,0.099503719021;                             119P     64
123,0.099503719021,0.,0.99503719020999;                              121P     65
190,117,119,121;                                                     123P     66
110,2000.,1000.00000000000011,-0.00000000000091,2500.,500.,          125P     67
5000.;                                                               125P     68
502,8,2500.,-500.,5000.,4000.,1000.,0.,3500.,-500.,5000.,2000.,      127P     69
-1000.,0.,2500.,500.,5000.,3500.,500.,5000.,2000.,1000.,0.,          127P     70
4000.,-1000.,0.;                                                     127P     71
110,2000.,-1000.,0.,2000.,1000.,0.;                                  129P     72
110,4000.,-1000.00000000000011,-0.00000000000091,3500.,-500.,        131P     73
5000.;                                                               131P     74
110,3500.,-500.,5000.,3500.,500.,5000.;                              133P     75
110,2500.,-500.,5000.,3500.,-500.,5000.;                             135P     76
110,2500.,500.,5000.,2500.,-500.,5000.;                              137P     77
110,2500.,-499.99999999999989,5000.00000000000091,2000.,-1000.,      139P     78
0.;                                                                  139P     79
110,3500.,500.,5000.,2500.,500.,5000.;                               141P     80
110,2000.,1000.,0.,4000.,1000.,0.;                                   143P     81
110,4000.,1000.,0.,4000.,-1000.,0.;                                  145P     82
110,4000.,-1000.,0.,2000.,-1000.,0.;                                 147P     83
110,4000.,1000.00000000000011,-0.00000000000091,3500.,500.,          149P     84
5000.;                                                               149P     85
504,12,125,127,7,127,5,129,127,4,127,7,131,127,8,127,3,133,127,      151P     86
3,127,6,135,127,1,127,3,137,127,5,127,1,139,127,1,127,4,141,127,     151P     87
6,127,5,143,127,7,127,2,145,127,2,127,8,147,127,8,127,4,149,127,     151P     88
2,127,6;                                                             151P     89
508,4,0,151,6,0,0,0,151,1,0,0,0,151,2,0,0,0,151,7,0,0;               153P     90
510,123,1,1,153;                                                     155P     91
116,2500.,-500.,5000.;                                               157P     92
123,0.,-0.99503719020999,0.099503719021;                             159P     93
123,0.,-0.099503719021,-0.99503719020999;                            161P     94
190,157,159,161;                                                     163P     95
508,4,0,151,5,0,0,0,151,7,1,0,0,151,11,0,0,0,151,3,1,0;              165P     96
510,163,1,1,165;                                                     167P     97
116,0.,0.,0.;                                                        169P     98
123,0.,0.,-1.;                                                       171P     99
123,-1.,0.,0.;                                                       173P    100
190,169,171,173;                                                     175P    101
508,4,0,151,11,1,0,0,151,2,1,0,0,151,9,1,0,0,151,10,1,0;             177P    102
510,175,1,1,177;                                                     179P    103
116,3500.,500.,5000.;                                                181P    104
123,0.,0.99503719020999,0.099503719021;                              183P    105
123,0.,-0.099503719021,0.99503719020999;                             185P    106
190,181,183,185;                                                     187P    107
508,4,0,151,8,0,0,0,151,12,0,0,0,151,9,0,0,0,151,1,1,0;              189P    108
510,187,1,1,189;                                                     191P    109
116,0.,0.,5000.;                                                     193P    110
123,0.,0.,1.;                                                        195P    111
123,1.,0.,0.;                                                        197P    112
190,193,195,197;                                                     199P    113
508,4,0,151,6,1,0,0,151,5,1,0,0,151,4,1,0,0,151,8,1,0;               201P    114
510,199,1,1,201;                                                     203P    115
116,3500.,-500.,5000.;                                               205P    116
123,0.99503719020999,0.,0.099503719021;                              207P    117
123,0.099503719021,0.,-0.99503719020999;                             209P    118
190,205,207,209;                                                     211P    119
508,4,0,151,4,0,0,0,151,3,0,0,0,151,10,0,0,0,151,12,1,0;             213P    120
510,211,1,1,213;                                                     215P    121
514,6,155,1,167,1,179,1,191,1,203,1,215,1;                           217P    122
186,217,1,0;                                                         219P    123
S      1G      3D    220P    123                                        T      1
